<mxfile host="www.draw.io" modified="2019-10-21T09:23:42.735Z" agent="Mozilla/5.0 (Windows NT 10.0; WOW64) AppleWebKit/537.36 (KHTML, like Gecko) Chrome/74.0.3729.131 Safari/537.36" etag="Ue2juiVT8hvfFS4wb5Go" version="12.1.3" type="github" pages="1">
  <diagram id="sr-xtuglzYKvn7P5C12l" name="Page-1">
    <mxGraphModel dx="1360" dy="802" grid="1" gridSize="10" guides="1" tooltips="1" connect="1" arrows="1" fold="1" page="1" pageScale="1" pageWidth="3300" pageHeight="4681" math="0" shadow="0">
      <root>
        <mxCell id="0"/>
        <mxCell id="1" parent="0"/>
        <mxCell id="qOUfE-cgyTDD1zatt1wV-4" style="edgeStyle=orthogonalEdgeStyle;rounded=0;orthogonalLoop=1;jettySize=auto;html=1;exitX=0.5;exitY=1;exitDx=0;exitDy=0;entryX=0.5;entryY=0;entryDx=0;entryDy=0;" edge="1" parent="1" source="qOUfE-cgyTDD1zatt1wV-1" target="qOUfE-cgyTDD1zatt1wV-2">
          <mxGeometry relative="1" as="geometry"/>
        </mxCell>
        <mxCell id="qOUfE-cgyTDD1zatt1wV-1" value="构造启用3G网络回传的请求体&lt;br&gt;activeNow=&lt;font color=&quot;#ff0000&quot;&gt;0&lt;/font&gt;" style="rounded=1;whiteSpace=wrap;html=1;" vertex="1" parent="1">
          <mxGeometry x="250" y="170" width="120" height="60" as="geometry"/>
        </mxCell>
        <mxCell id="qOUfE-cgyTDD1zatt1wV-6" style="edgeStyle=orthogonalEdgeStyle;rounded=0;orthogonalLoop=1;jettySize=auto;html=1;exitX=0.5;exitY=1;exitDx=0;exitDy=0;entryX=0.5;entryY=0;entryDx=0;entryDy=0;" edge="1" parent="1" source="qOUfE-cgyTDD1zatt1wV-2" target="qOUfE-cgyTDD1zatt1wV-3">
          <mxGeometry relative="1" as="geometry"/>
        </mxCell>
        <mxCell id="qOUfE-cgyTDD1zatt1wV-2" value="通过wifi登录微热点设备" style="rounded=1;whiteSpace=wrap;html=1;" vertex="1" parent="1">
          <mxGeometry x="250" y="270" width="120" height="60" as="geometry"/>
        </mxCell>
        <mxCell id="qOUfE-cgyTDD1zatt1wV-10" style="edgeStyle=orthogonalEdgeStyle;rounded=0;orthogonalLoop=1;jettySize=auto;html=1;exitX=0.5;exitY=1;exitDx=0;exitDy=0;entryX=0.5;entryY=0;entryDx=0;entryDy=0;" edge="1" parent="1" source="qOUfE-cgyTDD1zatt1wV-3" target="qOUfE-cgyTDD1zatt1wV-7">
          <mxGeometry relative="1" as="geometry"/>
        </mxCell>
        <mxCell id="qOUfE-cgyTDD1zatt1wV-3" value="通过SED&amp;nbsp;命名将&lt;span lang=&quot;EN-US&quot; style=&quot;font-size: 12pt&quot;&gt;&lt;font color=&quot;#333333&quot;&gt;/root/config/ifcfg文件&lt;/font&gt;&lt;br&gt;&lt;span lang=&quot;EN-US&quot; style=&quot;font-size: 10.5pt&quot;&gt;&lt;font color=&quot;#333333&quot;&gt;BOOTPROTO=&lt;/font&gt;&lt;font color=&quot;#ff0000&quot;&gt;dhcp&lt;/font&gt;&lt;/span&gt;&lt;br&gt;&lt;/span&gt;" style="rounded=1;whiteSpace=wrap;html=1;" vertex="1" parent="1">
          <mxGeometry x="225" y="370" width="170" height="70" as="geometry"/>
        </mxCell>
        <mxCell id="qOUfE-cgyTDD1zatt1wV-12" style="edgeStyle=orthogonalEdgeStyle;rounded=0;orthogonalLoop=1;jettySize=auto;html=1;exitX=0.5;exitY=1;exitDx=0;exitDy=0;entryX=0.5;entryY=0;entryDx=0;entryDy=0;" edge="1" parent="1" source="qOUfE-cgyTDD1zatt1wV-7" target="qOUfE-cgyTDD1zatt1wV-11">
          <mxGeometry relative="1" as="geometry"/>
        </mxCell>
        <mxCell id="qOUfE-cgyTDD1zatt1wV-7" value="ubus call web_lmt paras +&amp;nbsp;请求体&amp;nbsp;发送请求" style="rounded=1;whiteSpace=wrap;html=1;" vertex="1" parent="1">
          <mxGeometry x="230" y="470" width="160" height="60" as="geometry"/>
        </mxCell>
        <mxCell id="qOUfE-cgyTDD1zatt1wV-11" value="检查&lt;span lang=&quot;EN-US&quot; style=&quot;font-size: 12pt&quot;&gt;&lt;font color=&quot;#333333&quot;&gt;/root/config/ifcfg&lt;br&gt;文件&lt;/font&gt;&lt;br&gt;&lt;span lang=&quot;EN-US&quot; style=&quot;font-size: 10.5pt&quot;&gt;&lt;font color=&quot;#333333&quot;&gt;BOOTPROTO=&lt;/font&gt;&lt;font color=&quot;#ff0000&quot;&gt;none&lt;/font&gt;&lt;/span&gt;&lt;br&gt;&lt;/span&gt;" style="rounded=1;whiteSpace=wrap;html=1;" vertex="1" parent="1">
          <mxGeometry x="225" y="570" width="170" height="70" as="geometry"/>
        </mxCell>
        <mxCell id="qOUfE-cgyTDD1zatt1wV-13" value="&lt;font style=&quot;font-size: 14px&quot;&gt;&lt;b&gt;启用3G稍后生效&lt;/b&gt;&lt;/font&gt;" style="text;html=1;strokeColor=none;fillColor=none;align=center;verticalAlign=middle;whiteSpace=wrap;rounded=0;" vertex="1" parent="1">
          <mxGeometry x="250" y="100" width="110" height="30" as="geometry"/>
        </mxCell>
        <mxCell id="qOUfE-cgyTDD1zatt1wV-25" style="edgeStyle=orthogonalEdgeStyle;rounded=0;orthogonalLoop=1;jettySize=auto;html=1;exitX=0.5;exitY=1;exitDx=0;exitDy=0;entryX=0.5;entryY=0;entryDx=0;entryDy=0;" edge="1" parent="1" source="qOUfE-cgyTDD1zatt1wV-26" target="qOUfE-cgyTDD1zatt1wV-28">
          <mxGeometry relative="1" as="geometry"/>
        </mxCell>
        <mxCell id="qOUfE-cgyTDD1zatt1wV-26" value="构造启用3G网络回传的请求体&lt;br&gt;activeNow=&lt;font color=&quot;#ff0000&quot;&gt;1&lt;/font&gt;" style="rounded=1;whiteSpace=wrap;html=1;" vertex="1" parent="1">
          <mxGeometry x="495" y="170" width="120" height="60" as="geometry"/>
        </mxCell>
        <mxCell id="qOUfE-cgyTDD1zatt1wV-27" style="edgeStyle=orthogonalEdgeStyle;rounded=0;orthogonalLoop=1;jettySize=auto;html=1;exitX=0.5;exitY=1;exitDx=0;exitDy=0;entryX=0.5;entryY=0;entryDx=0;entryDy=0;" edge="1" parent="1" source="qOUfE-cgyTDD1zatt1wV-28" target="qOUfE-cgyTDD1zatt1wV-30">
          <mxGeometry relative="1" as="geometry"/>
        </mxCell>
        <mxCell id="qOUfE-cgyTDD1zatt1wV-28" value="通过wifi登录微热点设备" style="rounded=1;whiteSpace=wrap;html=1;" vertex="1" parent="1">
          <mxGeometry x="495" y="270" width="120" height="60" as="geometry"/>
        </mxCell>
        <mxCell id="qOUfE-cgyTDD1zatt1wV-29" style="edgeStyle=orthogonalEdgeStyle;rounded=0;orthogonalLoop=1;jettySize=auto;html=1;exitX=0.5;exitY=1;exitDx=0;exitDy=0;entryX=0.5;entryY=0;entryDx=0;entryDy=0;" edge="1" parent="1" source="qOUfE-cgyTDD1zatt1wV-30" target="qOUfE-cgyTDD1zatt1wV-32">
          <mxGeometry relative="1" as="geometry"/>
        </mxCell>
        <mxCell id="qOUfE-cgyTDD1zatt1wV-30" value="通过SED&amp;nbsp;命名将&lt;span lang=&quot;EN-US&quot; style=&quot;font-size: 12pt&quot;&gt;&lt;font color=&quot;#333333&quot;&gt;/root/config/ifcfg文件&lt;/font&gt;&lt;br&gt;&lt;span lang=&quot;EN-US&quot; style=&quot;font-size: 10.5pt&quot;&gt;&lt;font color=&quot;#333333&quot;&gt;BOOTPROTO=&lt;/font&gt;&lt;font color=&quot;#ff0000&quot;&gt;dhcp&lt;/font&gt;&lt;/span&gt;&lt;br&gt;&lt;/span&gt;" style="rounded=1;whiteSpace=wrap;html=1;" vertex="1" parent="1">
          <mxGeometry x="470" y="370" width="170" height="70" as="geometry"/>
        </mxCell>
        <mxCell id="qOUfE-cgyTDD1zatt1wV-31" style="edgeStyle=orthogonalEdgeStyle;rounded=0;orthogonalLoop=1;jettySize=auto;html=1;exitX=0.5;exitY=1;exitDx=0;exitDy=0;entryX=0.5;entryY=0;entryDx=0;entryDy=0;" edge="1" parent="1" source="qOUfE-cgyTDD1zatt1wV-32">
          <mxGeometry relative="1" as="geometry">
            <mxPoint x="555" y="570" as="targetPoint"/>
          </mxGeometry>
        </mxCell>
        <mxCell id="qOUfE-cgyTDD1zatt1wV-32" value="ubus call web_lmt paras +&amp;nbsp;请求体&amp;nbsp;发送请求" style="rounded=1;whiteSpace=wrap;html=1;" vertex="1" parent="1">
          <mxGeometry x="475" y="470" width="160" height="60" as="geometry"/>
        </mxCell>
        <mxCell id="qOUfE-cgyTDD1zatt1wV-34" value="&lt;font style=&quot;font-size: 14px&quot;&gt;&lt;b&gt;启用3G立刻生效&lt;/b&gt;&lt;/font&gt;" style="text;html=1;strokeColor=none;fillColor=none;align=center;verticalAlign=middle;whiteSpace=wrap;rounded=0;" vertex="1" parent="1">
          <mxGeometry x="495" y="100" width="110" height="30" as="geometry"/>
        </mxCell>
        <mxCell id="qOUfE-cgyTDD1zatt1wV-37" style="edgeStyle=orthogonalEdgeStyle;rounded=0;orthogonalLoop=1;jettySize=auto;html=1;exitX=0.5;exitY=1;exitDx=0;exitDy=0;entryX=0.5;entryY=0;entryDx=0;entryDy=0;" edge="1" parent="1" source="qOUfE-cgyTDD1zatt1wV-35" target="qOUfE-cgyTDD1zatt1wV-36">
          <mxGeometry relative="1" as="geometry"/>
        </mxCell>
        <mxCell id="qOUfE-cgyTDD1zatt1wV-35" value="&lt;font color=&quot;#ff0000&quot;&gt;等待设备重启&lt;/font&gt;" style="rounded=1;whiteSpace=wrap;html=1;" vertex="1" parent="1">
          <mxGeometry x="495" y="575" width="120" height="60" as="geometry"/>
        </mxCell>
        <mxCell id="qOUfE-cgyTDD1zatt1wV-39" style="edgeStyle=orthogonalEdgeStyle;rounded=0;orthogonalLoop=1;jettySize=auto;html=1;exitX=0.5;exitY=1;exitDx=0;exitDy=0;entryX=0.5;entryY=0;entryDx=0;entryDy=0;" edge="1" parent="1" source="qOUfE-cgyTDD1zatt1wV-36" target="qOUfE-cgyTDD1zatt1wV-38">
          <mxGeometry relative="1" as="geometry"/>
        </mxCell>
        <mxCell id="qOUfE-cgyTDD1zatt1wV-36" value="通过wifi登录微热点设备" style="rounded=1;whiteSpace=wrap;html=1;" vertex="1" parent="1">
          <mxGeometry x="690" y="270" width="120" height="60" as="geometry"/>
        </mxCell>
        <mxCell id="qOUfE-cgyTDD1zatt1wV-38" value="检查&lt;span lang=&quot;EN-US&quot; style=&quot;font-size: 12pt&quot;&gt;&lt;font color=&quot;#333333&quot;&gt;/root/config/ifcfg&lt;br&gt;文件&lt;/font&gt;&lt;br&gt;&lt;span lang=&quot;EN-US&quot; style=&quot;font-size: 10.5pt&quot;&gt;&lt;font color=&quot;#333333&quot;&gt;BOOTPROTO=&lt;/font&gt;&lt;font color=&quot;#ff0000&quot;&gt;none&lt;/font&gt;&lt;/span&gt;&lt;br&gt;&lt;/span&gt;" style="rounded=1;whiteSpace=wrap;html=1;" vertex="1" parent="1">
          <mxGeometry x="665" y="390" width="170" height="70" as="geometry"/>
        </mxCell>
      </root>
    </mxGraphModel>
  </diagram>
</mxfile>
